# xmcd
#
# Track frame offsets: 
#        150
#        22090
#        37150
#
# Disc length: 739 seconds
#
# Revision: 0
# Processed by: cddbd v1.5.1PL0 Copyright (c) Steve Scherf et al.
# Submitted via: ExactAudioCopy v0.95a5
#
DISCID=2302e103
DTITLE=Svein Finstad - I Really Wanna Know [CDs)
DYEAR=1996
DGENRE=Blues
TTITLE0=I really wanna know
TTITLE1=Make money
TTITLE2=Mambo jambo
EXTD=
EXTT0=
EXTT1=
EXTT2=
PLAYORDER=
